<?xml version="1.0" encoding="UTF-8" standalone="no"?>
<!-- Generator: Adobe Illustrator 16.0.4, SVG Export Plug-In . SVG Version: 6.00 Build 0)  -->

<svg
   xmlns:dc="http://purl.org/dc/elements/1.1/"
   xmlns:cc="http://creativecommons.org/ns#"
   xmlns:rdf="http://www.w3.org/1999/02/22-rdf-syntax-ns#"
   xmlns:svg="http://www.w3.org/2000/svg"
   xmlns="http://www.w3.org/2000/svg"
   xmlns:sodipodi="http://sodipodi.sourceforge.net/DTD/sodipodi-0.dtd"
   xmlns:inkscape="http://www.inkscape.org/namespaces/inkscape"
   version="1.1"
   id="Layer_1"
   x="0px"
   y="0px"
   width="155"
   height="162"
   viewBox="0 0 155.00001 162"
   enable-background="new 0 0 258.102 268.091"
   xml:space="preserve"
   inkscape:version="0.48.4 r9939"
   sodipodi:docname="slimta.svg"><metadata
     id="metadata3055"><rdf:RDF><cc:Work
         rdf:about=""><dc:format>image/svg+xml</dc:format><dc:type
           rdf:resource="http://purl.org/dc/dcmitype/StillImage" /><dc:title></dc:title></cc:Work></rdf:RDF></metadata><defs
     id="defs3053" /><sodipodi:namedview
     pagecolor="#ffffff"
     bordercolor="#666666"
     borderopacity="1"
     objecttolerance="10"
     gridtolerance="10"
     guidetolerance="10"
     inkscape:pageopacity="0"
     inkscape:pageshadow="2"
     inkscape:window-width="1420"
     inkscape:window-height="991"
     id="namedview3051"
     showgrid="false"
     inkscape:zoom="1"
     inkscape:cx="129.05099"
     inkscape:cy="134.0455"
     inkscape:window-x="0"
     inkscape:window-y="25"
     inkscape:window-maximized="0"
     inkscape:current-layer="Layer_1" /><polygon
     points="252,120.261 252,113.225 212.376,78.062 129.152,3.884 45.894,77.823 6,113.225 6,120.261 129,213.45 "
     id="polygon3041"
     style="fill:#a0a0a1"
     transform="matrix(0.61788622,0,0,0.61788622,-1.7073254,-0.29203603)" /><polygon
     points="129,213.45 246,124.807 246,113 12,113 12,124.807 "
     id="polygon3043"
     style="fill:#f4f4f2"
     transform="matrix(0.61788622,0,0,0.61788622,-1.7073254,-0.29203603)" /><polygon
     points="153.783,183.285 143.727,149.458 115.495,150.263 105.691,183.285 102.341,194.253 129,214.45 156.856,193.346 "
     id="polygon3045"
     style="fill:#d1d2cd"
     transform="matrix(0.61788622,0,0,0.61788622,-1.7073254,-0.29203603)" /><polygon
     points="109.882,187.506 107.124,197.876 129,214.45 152.038,196.996 149.514,187.506 141.226,156.324 172.303,118 130.928,118 86.079,118 117.962,157.1 "
     id="polygon3047"
     style="fill:#ff3333"
     transform="matrix(0.61788622,0,0,0.61788622,-1.7073254,-0.29203603)" /><polygon
     points="129,210.45 6,117.261 6,262 252,262 252,117.261 "
     id="polygon3049"
     style="fill:#2b2c2d"
     transform="matrix(0.61788622,0,0,0.61788622,-1.7073254,-0.29203603)" /></svg>